<?xml version='1.0' encoding='iso-8859-1'?>
<svg version="1.1" xmlns="http://www.w3.org/2000/svg" viewBox="0 0 137.144 137.144" xmlns:xlink="http://www.w3.org/1999/xlink" enable-background="new 0 0 137.144 137.144">
  <g>
    <g>
      <path d="M109.715,0H27.429C12.28,0,0,12.28,0,27.429v82.286c0,15.149,12.28,27.429,27.429,27.429h82.286    c15.149,0,27.429-12.28,27.429-27.429V27.429C137.144,12.28,124.864,0,109.715,0z M123.43,94.286l-20.572-25.714L79.17,92.26    L48.001,54.857L13.714,89.143V34.286c0-11.362,9.21-20.572,20.572-20.572h68.572c11.361,0,20.571,9.21,20.571,20.572V94.286z     M89.144,27.428c-7.574,0-13.714,6.14-13.714,13.715c0,7.574,6.14,13.714,13.714,13.714c7.574,0,13.714-6.14,13.714-13.714    C102.858,33.568,96.718,27.428,89.144,27.428z"/>
    </g>
  </g>
</svg>
